<mxfile host="app.diagrams.net" modified="2023-12-01T15:50:40.419Z" agent="Mozilla/5.0 (Windows NT 10.0; Win64; x64) AppleWebKit/537.36 (KHTML, like Gecko) Chrome/119.0.0.0 Safari/537.36" etag="8j1whYhQQ5ik-PjBsHb5" version="22.1.5" type="device" pages="7">
  <diagram id="C5RBs43oDa-KdzZeNtuy" name="Create user account">
    <mxGraphModel dx="1050" dy="534" grid="1" gridSize="10" guides="1" tooltips="1" connect="1" arrows="1" fold="1" page="1" pageScale="1" pageWidth="827" pageHeight="1169" math="0" shadow="0">
      <root>
        <mxCell id="WIyWlLk6GJQsqaUBKTNV-0" />
        <mxCell id="WIyWlLk6GJQsqaUBKTNV-1" parent="WIyWlLk6GJQsqaUBKTNV-0" />
        <mxCell id="WIyWlLk6GJQsqaUBKTNV-2" value="" style="rounded=0;html=1;jettySize=auto;orthogonalLoop=1;fontSize=11;endArrow=block;endFill=0;endSize=8;strokeWidth=1;shadow=0;labelBackgroundColor=none;edgeStyle=orthogonalEdgeStyle;" parent="WIyWlLk6GJQsqaUBKTNV-1" source="WIyWlLk6GJQsqaUBKTNV-3" target="WIyWlLk6GJQsqaUBKTNV-6" edge="1">
          <mxGeometry relative="1" as="geometry" />
        </mxCell>
        <mxCell id="WIyWlLk6GJQsqaUBKTNV-3" value="Create Sale people account" style="rounded=1;whiteSpace=wrap;html=1;fontSize=12;glass=0;strokeWidth=1;shadow=0;" parent="WIyWlLk6GJQsqaUBKTNV-1" vertex="1">
          <mxGeometry x="160" y="30" width="120" height="40" as="geometry" />
        </mxCell>
        <mxCell id="WIyWlLk6GJQsqaUBKTNV-4" value="Yes" style="rounded=0;html=1;jettySize=auto;orthogonalLoop=1;fontSize=11;endArrow=block;endFill=0;endSize=8;strokeWidth=1;shadow=0;labelBackgroundColor=none;edgeStyle=orthogonalEdgeStyle;" parent="WIyWlLk6GJQsqaUBKTNV-1" source="WIyWlLk6GJQsqaUBKTNV-6" target="WIyWlLk6GJQsqaUBKTNV-10" edge="1">
          <mxGeometry y="20" relative="1" as="geometry">
            <mxPoint as="offset" />
          </mxGeometry>
        </mxCell>
        <mxCell id="WIyWlLk6GJQsqaUBKTNV-5" value="No" style="edgeStyle=orthogonalEdgeStyle;rounded=0;html=1;jettySize=auto;orthogonalLoop=1;fontSize=11;endArrow=block;endFill=0;endSize=8;strokeWidth=1;shadow=0;labelBackgroundColor=none;" parent="WIyWlLk6GJQsqaUBKTNV-1" source="WIyWlLk6GJQsqaUBKTNV-6" target="WIyWlLk6GJQsqaUBKTNV-7" edge="1">
          <mxGeometry y="10" relative="1" as="geometry">
            <mxPoint as="offset" />
          </mxGeometry>
        </mxCell>
        <mxCell id="WIyWlLk6GJQsqaUBKTNV-6" value="Admin Session ?" style="rhombus;whiteSpace=wrap;html=1;shadow=0;fontFamily=Helvetica;fontSize=12;align=center;strokeWidth=1;spacing=6;spacingTop=-4;" parent="WIyWlLk6GJQsqaUBKTNV-1" vertex="1">
          <mxGeometry x="170" y="170" width="100" height="80" as="geometry" />
        </mxCell>
        <mxCell id="WIyWlLk6GJQsqaUBKTNV-7" value="403" style="rounded=1;whiteSpace=wrap;html=1;fontSize=12;glass=0;strokeWidth=1;shadow=0;" parent="WIyWlLk6GJQsqaUBKTNV-1" vertex="1">
          <mxGeometry x="320" y="190" width="120" height="40" as="geometry" />
        </mxCell>
        <mxCell id="WIyWlLk6GJQsqaUBKTNV-8" value="Yes" style="rounded=0;html=1;jettySize=auto;orthogonalLoop=1;fontSize=11;endArrow=block;endFill=0;endSize=8;strokeWidth=1;shadow=0;labelBackgroundColor=none;edgeStyle=orthogonalEdgeStyle;" parent="WIyWlLk6GJQsqaUBKTNV-1" source="WIyWlLk6GJQsqaUBKTNV-10" edge="1">
          <mxGeometry x="0.3333" y="20" relative="1" as="geometry">
            <mxPoint as="offset" />
            <mxPoint x="220" y="430" as="targetPoint" />
          </mxGeometry>
        </mxCell>
        <mxCell id="WIyWlLk6GJQsqaUBKTNV-9" value="No" style="edgeStyle=orthogonalEdgeStyle;rounded=0;html=1;jettySize=auto;orthogonalLoop=1;fontSize=11;endArrow=block;endFill=0;endSize=8;strokeWidth=1;shadow=0;labelBackgroundColor=none;" parent="WIyWlLk6GJQsqaUBKTNV-1" source="WIyWlLk6GJQsqaUBKTNV-10" target="WIyWlLk6GJQsqaUBKTNV-12" edge="1">
          <mxGeometry x="0.0057" y="10" relative="1" as="geometry">
            <mxPoint as="offset" />
          </mxGeometry>
        </mxCell>
        <mxCell id="WIyWlLk6GJQsqaUBKTNV-10" value="Full name and mail address ?" style="rhombus;whiteSpace=wrap;html=1;shadow=0;fontFamily=Helvetica;fontSize=12;align=center;strokeWidth=1;spacing=6;spacingTop=-4;" parent="WIyWlLk6GJQsqaUBKTNV-1" vertex="1">
          <mxGeometry x="170" y="290" width="100" height="80" as="geometry" />
        </mxCell>
        <mxCell id="WIyWlLk6GJQsqaUBKTNV-12" value="400" style="rounded=1;whiteSpace=wrap;html=1;fontSize=12;glass=0;strokeWidth=1;shadow=0;" parent="WIyWlLk6GJQsqaUBKTNV-1" vertex="1">
          <mxGeometry x="320" y="310" width="120" height="40" as="geometry" />
        </mxCell>
        <mxCell id="y0VJnp0ouGgfrVpqidaZ-0" value="Send mail" style="rhombus;whiteSpace=wrap;html=1;shadow=0;fontFamily=Helvetica;fontSize=12;align=center;strokeWidth=1;spacing=6;spacingTop=-4;" parent="WIyWlLk6GJQsqaUBKTNV-1" vertex="1">
          <mxGeometry x="170" y="430" width="100" height="80" as="geometry" />
        </mxCell>
        <mxCell id="y0VJnp0ouGgfrVpqidaZ-1" value="No" style="edgeStyle=orthogonalEdgeStyle;rounded=0;html=1;jettySize=auto;orthogonalLoop=1;fontSize=11;endArrow=block;endFill=0;endSize=8;strokeWidth=1;shadow=0;labelBackgroundColor=none;" parent="WIyWlLk6GJQsqaUBKTNV-1" target="y0VJnp0ouGgfrVpqidaZ-2" edge="1">
          <mxGeometry x="0.0057" y="10" relative="1" as="geometry">
            <mxPoint as="offset" />
            <mxPoint x="270" y="470" as="sourcePoint" />
          </mxGeometry>
        </mxCell>
        <mxCell id="y0VJnp0ouGgfrVpqidaZ-2" value="500" style="rounded=1;whiteSpace=wrap;html=1;fontSize=12;glass=0;strokeWidth=1;shadow=0;" parent="WIyWlLk6GJQsqaUBKTNV-1" vertex="1">
          <mxGeometry x="320" y="450" width="120" height="40" as="geometry" />
        </mxCell>
      </root>
    </mxGraphModel>
  </diagram>
  <diagram id="zBf0lSowG8r_WJAcvTYz" name="Account management">
    <mxGraphModel dx="1900" dy="1634" grid="1" gridSize="10" guides="1" tooltips="1" connect="1" arrows="1" fold="1" page="1" pageScale="1" pageWidth="850" pageHeight="1100" math="0" shadow="0">
      <root>
        <mxCell id="0" />
        <mxCell id="1" parent="0" />
        <mxCell id="GoSusO9SG4Zr40ddCiW3-1" value="Create User Account&lt;br&gt;INPUT: Full name, email&lt;br&gt;OUTPUT: message" style="rounded=1;whiteSpace=wrap;html=1;" parent="1" vertex="1">
          <mxGeometry x="-770" y="-320" width="120" height="60" as="geometry" />
        </mxCell>
        <mxCell id="f0DTv-QLwaSAV5kTDhEp-1" value="Send validate mail&lt;br&gt;INPUT: User ID&lt;br&gt;OUTPUT: message" style="rounded=1;whiteSpace=wrap;html=1;" parent="1" vertex="1">
          <mxGeometry x="-630" y="-320" width="120" height="60" as="geometry" />
        </mxCell>
        <mxCell id="f0DTv-QLwaSAV5kTDhEp-2" value="Validate Account&lt;br&gt;INPUT: User ID&lt;br&gt;OUTPUT: message" style="rounded=1;whiteSpace=wrap;html=1;" parent="1" vertex="1">
          <mxGeometry x="-490" y="-320" width="120" height="60" as="geometry" />
        </mxCell>
        <mxCell id="f0DTv-QLwaSAV5kTDhEp-3" value="Login&lt;br&gt;INPUT: username, password&lt;br&gt;OUTPUT: message" style="rounded=1;whiteSpace=wrap;html=1;" parent="1" vertex="1">
          <mxGeometry x="-350" y="-320" width="120" height="60" as="geometry" />
        </mxCell>
        <mxCell id="f0DTv-QLwaSAV5kTDhEp-4" value="Change info&lt;br&gt;INPUT: new password, picture&lt;br&gt;OUTPUT: message" style="rounded=1;whiteSpace=wrap;html=1;" parent="1" vertex="1">
          <mxGeometry x="-210" y="-320" width="120" height="60" as="geometry" />
        </mxCell>
        <mxCell id="f0DTv-QLwaSAV5kTDhEp-5" value="Get employees&lt;br&gt;INPUT: nothing&lt;br&gt;OUTPUT: list of all employees" style="rounded=1;whiteSpace=wrap;html=1;" parent="1" vertex="1">
          <mxGeometry x="-70" y="-320" width="120" height="60" as="geometry" />
        </mxCell>
        <mxCell id="f0DTv-QLwaSAV5kTDhEp-6" value="Get employee&lt;br&gt;INPUT: employee ID&lt;br&gt;OUTPUT: detail of that employee" style="rounded=1;whiteSpace=wrap;html=1;" parent="1" vertex="1">
          <mxGeometry x="70" y="-320" width="120" height="60" as="geometry" />
        </mxCell>
        <mxCell id="f0DTv-QLwaSAV5kTDhEp-7" value="Lock-unlock account&lt;br&gt;INPUT: employee ID&lt;br&gt;OUTPUT: new status of employee" style="rounded=1;whiteSpace=wrap;html=1;" parent="1" vertex="1">
          <mxGeometry x="210" y="-320" width="120" height="60" as="geometry" />
        </mxCell>
      </root>
    </mxGraphModel>
  </diagram>
  <diagram id="v46XkRBTq_MGXwvM4TGZ" name="Flow chart">
    <mxGraphModel dx="1313" dy="668" grid="1" gridSize="10" guides="1" tooltips="1" connect="1" arrows="1" fold="1" page="1" pageScale="1" pageWidth="850" pageHeight="1100" math="0" shadow="0">
      <root>
        <mxCell id="0" />
        <mxCell id="1" parent="0" />
        <mxCell id="lpzaVv8z84PRBy_t_nVB-6" value="" style="edgeStyle=orthogonalEdgeStyle;rounded=0;orthogonalLoop=1;jettySize=auto;html=1;" parent="1" source="lpzaVv8z84PRBy_t_nVB-2" target="lpzaVv8z84PRBy_t_nVB-5" edge="1">
          <mxGeometry relative="1" as="geometry" />
        </mxCell>
        <mxCell id="lpzaVv8z84PRBy_t_nVB-7" value="No" style="edgeLabel;html=1;align=center;verticalAlign=middle;resizable=0;points=[];" parent="lpzaVv8z84PRBy_t_nVB-6" vertex="1" connectable="0">
          <mxGeometry x="-0.0733" relative="1" as="geometry">
            <mxPoint as="offset" />
          </mxGeometry>
        </mxCell>
        <mxCell id="UxDitPDi1wDUni5hOBnU-2" value="" style="edgeStyle=orthogonalEdgeStyle;rounded=0;orthogonalLoop=1;jettySize=auto;html=1;" parent="1" source="lpzaVv8z84PRBy_t_nVB-2" edge="1">
          <mxGeometry relative="1" as="geometry">
            <mxPoint x="90" y="340" as="targetPoint" />
          </mxGeometry>
        </mxCell>
        <mxCell id="UxDitPDi1wDUni5hOBnU-3" value="Yes" style="edgeLabel;html=1;align=center;verticalAlign=middle;resizable=0;points=[];" parent="UxDitPDi1wDUni5hOBnU-2" vertex="1" connectable="0">
          <mxGeometry x="-0.0578" y="-2" relative="1" as="geometry">
            <mxPoint as="offset" />
          </mxGeometry>
        </mxCell>
        <mxCell id="lpzaVv8z84PRBy_t_nVB-2" value="Correct info ?&lt;br&gt;" style="rhombus;whiteSpace=wrap;html=1;" parent="1" vertex="1">
          <mxGeometry x="50" y="180" width="80" height="80" as="geometry" />
        </mxCell>
        <mxCell id="lpzaVv8z84PRBy_t_nVB-5" value="Reject" style="rounded=1;whiteSpace=wrap;html=1;" parent="1" vertex="1">
          <mxGeometry x="230" y="190" width="120" height="60" as="geometry" />
        </mxCell>
        <mxCell id="DezQBStHPGag5F5p0LfD-16" style="edgeStyle=orthogonalEdgeStyle;rounded=0;orthogonalLoop=1;jettySize=auto;html=1;entryX=0.5;entryY=0;entryDx=0;entryDy=0;" edge="1" parent="1" source="DezQBStHPGag5F5p0LfD-17" target="DezQBStHPGag5F5p0LfD-22">
          <mxGeometry relative="1" as="geometry" />
        </mxCell>
        <mxCell id="DezQBStHPGag5F5p0LfD-17" value="Change Info" style="rounded=1;whiteSpace=wrap;html=1;" vertex="1" parent="1">
          <mxGeometry x="400" y="50" width="120" height="60" as="geometry" />
        </mxCell>
        <mxCell id="DezQBStHPGag5F5p0LfD-18" value="" style="edgeStyle=orthogonalEdgeStyle;rounded=0;orthogonalLoop=1;jettySize=auto;html=1;" edge="1" parent="1" source="DezQBStHPGag5F5p0LfD-22" target="DezQBStHPGag5F5p0LfD-23">
          <mxGeometry relative="1" as="geometry" />
        </mxCell>
        <mxCell id="DezQBStHPGag5F5p0LfD-19" value="No" style="edgeLabel;html=1;align=center;verticalAlign=middle;resizable=0;points=[];" vertex="1" connectable="0" parent="DezQBStHPGag5F5p0LfD-18">
          <mxGeometry x="-0.0933" y="2" relative="1" as="geometry">
            <mxPoint as="offset" />
          </mxGeometry>
        </mxCell>
        <mxCell id="DezQBStHPGag5F5p0LfD-20" value="" style="edgeStyle=orthogonalEdgeStyle;rounded=0;orthogonalLoop=1;jettySize=auto;html=1;" edge="1" parent="1" source="DezQBStHPGag5F5p0LfD-22" target="DezQBStHPGag5F5p0LfD-28">
          <mxGeometry relative="1" as="geometry" />
        </mxCell>
        <mxCell id="DezQBStHPGag5F5p0LfD-21" value="Yes" style="edgeLabel;html=1;align=center;verticalAlign=middle;resizable=0;points=[];" vertex="1" connectable="0" parent="DezQBStHPGag5F5p0LfD-20">
          <mxGeometry x="-0.2148" y="-2" relative="1" as="geometry">
            <mxPoint as="offset" />
          </mxGeometry>
        </mxCell>
        <mxCell id="DezQBStHPGag5F5p0LfD-22" value="user or admin ?" style="rhombus;whiteSpace=wrap;html=1;" vertex="1" parent="1">
          <mxGeometry x="420" y="180" width="80" height="80" as="geometry" />
        </mxCell>
        <mxCell id="DezQBStHPGag5F5p0LfD-23" value="Reject" style="rounded=1;whiteSpace=wrap;html=1;" vertex="1" parent="1">
          <mxGeometry x="600" y="190" width="120" height="60" as="geometry" />
        </mxCell>
        <mxCell id="DezQBStHPGag5F5p0LfD-24" value="" style="edgeStyle=orthogonalEdgeStyle;rounded=0;orthogonalLoop=1;jettySize=auto;html=1;" edge="1" parent="1" source="DezQBStHPGag5F5p0LfD-28" target="DezQBStHPGag5F5p0LfD-29">
          <mxGeometry relative="1" as="geometry" />
        </mxCell>
        <mxCell id="DezQBStHPGag5F5p0LfD-25" value="No" style="edgeLabel;html=1;align=center;verticalAlign=middle;resizable=0;points=[];" vertex="1" connectable="0" parent="DezQBStHPGag5F5p0LfD-24">
          <mxGeometry x="-0.0733" relative="1" as="geometry">
            <mxPoint as="offset" />
          </mxGeometry>
        </mxCell>
        <mxCell id="DezQBStHPGag5F5p0LfD-26" value="" style="edgeStyle=orthogonalEdgeStyle;rounded=0;orthogonalLoop=1;jettySize=auto;html=1;" edge="1" parent="1" source="DezQBStHPGag5F5p0LfD-28" target="DezQBStHPGag5F5p0LfD-30">
          <mxGeometry relative="1" as="geometry" />
        </mxCell>
        <mxCell id="DezQBStHPGag5F5p0LfD-27" value="Yes" style="edgeLabel;html=1;align=center;verticalAlign=middle;resizable=0;points=[];" vertex="1" connectable="0" parent="DezQBStHPGag5F5p0LfD-26">
          <mxGeometry x="-0.0578" y="-2" relative="1" as="geometry">
            <mxPoint as="offset" />
          </mxGeometry>
        </mxCell>
        <mxCell id="DezQBStHPGag5F5p0LfD-28" value="correct old password ?" style="rhombus;whiteSpace=wrap;html=1;" vertex="1" parent="1">
          <mxGeometry x="420" y="320" width="80" height="80" as="geometry" />
        </mxCell>
        <mxCell id="DezQBStHPGag5F5p0LfD-29" value="Reject" style="rounded=1;whiteSpace=wrap;html=1;" vertex="1" parent="1">
          <mxGeometry x="600" y="330" width="120" height="60" as="geometry" />
        </mxCell>
        <mxCell id="DezQBStHPGag5F5p0LfD-32" value="" style="edgeStyle=orthogonalEdgeStyle;rounded=0;orthogonalLoop=1;jettySize=auto;html=1;" edge="1" parent="1" source="DezQBStHPGag5F5p0LfD-30" target="DezQBStHPGag5F5p0LfD-31">
          <mxGeometry relative="1" as="geometry" />
        </mxCell>
        <mxCell id="DezQBStHPGag5F5p0LfD-30" value="change password" style="rhombus;whiteSpace=wrap;html=1;" vertex="1" parent="1">
          <mxGeometry x="420" y="450" width="80" height="80" as="geometry" />
        </mxCell>
        <mxCell id="DezQBStHPGag5F5p0LfD-34" value="" style="edgeStyle=orthogonalEdgeStyle;rounded=0;orthogonalLoop=1;jettySize=auto;html=1;" edge="1" parent="1" source="DezQBStHPGag5F5p0LfD-31" target="DezQBStHPGag5F5p0LfD-33">
          <mxGeometry relative="1" as="geometry" />
        </mxCell>
        <mxCell id="DezQBStHPGag5F5p0LfD-35" value="No" style="edgeLabel;html=1;align=center;verticalAlign=middle;resizable=0;points=[];" vertex="1" connectable="0" parent="DezQBStHPGag5F5p0LfD-34">
          <mxGeometry x="-0.0933" y="1" relative="1" as="geometry">
            <mxPoint as="offset" />
          </mxGeometry>
        </mxCell>
        <mxCell id="DezQBStHPGag5F5p0LfD-37" value="" style="edgeStyle=orthogonalEdgeStyle;rounded=0;orthogonalLoop=1;jettySize=auto;html=1;" edge="1" parent="1" source="DezQBStHPGag5F5p0LfD-31" target="DezQBStHPGag5F5p0LfD-36">
          <mxGeometry relative="1" as="geometry" />
        </mxCell>
        <mxCell id="DezQBStHPGag5F5p0LfD-31" value="image ?" style="rhombus;whiteSpace=wrap;html=1;" vertex="1" parent="1">
          <mxGeometry x="420" y="570" width="80" height="80" as="geometry" />
        </mxCell>
        <mxCell id="DezQBStHPGag5F5p0LfD-33" value="delete cookie (FE)&lt;br&gt;and return OK message" style="rounded=1;whiteSpace=wrap;html=1;" vertex="1" parent="1">
          <mxGeometry x="600" y="580" width="120" height="60" as="geometry" />
        </mxCell>
        <mxCell id="DezQBStHPGag5F5p0LfD-39" value="" style="edgeStyle=orthogonalEdgeStyle;rounded=0;orthogonalLoop=1;jettySize=auto;html=1;" edge="1" parent="1" source="DezQBStHPGag5F5p0LfD-36" target="DezQBStHPGag5F5p0LfD-38">
          <mxGeometry relative="1" as="geometry" />
        </mxCell>
        <mxCell id="DezQBStHPGag5F5p0LfD-36" value="Change image" style="rhombus;whiteSpace=wrap;html=1;" vertex="1" parent="1">
          <mxGeometry x="420" y="700" width="80" height="80" as="geometry" />
        </mxCell>
        <mxCell id="DezQBStHPGag5F5p0LfD-38" value="Return new data" style="rhombus;whiteSpace=wrap;html=1;" vertex="1" parent="1">
          <mxGeometry x="390" y="840" width="140" height="140" as="geometry" />
        </mxCell>
        <mxCell id="b8axCxzUsfbwDjh7VpHQ-3" value="" style="edgeStyle=orthogonalEdgeStyle;rounded=0;orthogonalLoop=1;jettySize=auto;html=1;" edge="1" parent="1" source="b8axCxzUsfbwDjh7VpHQ-1" target="b8axCxzUsfbwDjh7VpHQ-2">
          <mxGeometry relative="1" as="geometry" />
        </mxCell>
        <mxCell id="b8axCxzUsfbwDjh7VpHQ-4" value="other" style="edgeLabel;html=1;align=center;verticalAlign=middle;resizable=0;points=[];" vertex="1" connectable="0" parent="b8axCxzUsfbwDjh7VpHQ-3">
          <mxGeometry x="-0.2" y="3" relative="1" as="geometry">
            <mxPoint as="offset" />
          </mxGeometry>
        </mxCell>
        <mxCell id="b8axCxzUsfbwDjh7VpHQ-6" value="" style="edgeStyle=orthogonalEdgeStyle;rounded=0;orthogonalLoop=1;jettySize=auto;html=1;" edge="1" parent="1" source="b8axCxzUsfbwDjh7VpHQ-1" target="b8axCxzUsfbwDjh7VpHQ-5">
          <mxGeometry relative="1" as="geometry" />
        </mxCell>
        <mxCell id="b8axCxzUsfbwDjh7VpHQ-7" value="active" style="edgeLabel;html=1;align=center;verticalAlign=middle;resizable=0;points=[];" vertex="1" connectable="0" parent="b8axCxzUsfbwDjh7VpHQ-6">
          <mxGeometry x="-0.1" relative="1" as="geometry">
            <mxPoint y="-1" as="offset" />
          </mxGeometry>
        </mxCell>
        <mxCell id="b8axCxzUsfbwDjh7VpHQ-1" value="Status" style="rhombus;whiteSpace=wrap;html=1;" vertex="1" parent="1">
          <mxGeometry x="50" y="340" width="80" height="80" as="geometry" />
        </mxCell>
        <mxCell id="b8axCxzUsfbwDjh7VpHQ-2" value="Reject" style="rounded=1;whiteSpace=wrap;html=1;" vertex="1" parent="1">
          <mxGeometry x="230" y="350" width="120" height="60" as="geometry" />
        </mxCell>
        <mxCell id="b8axCxzUsfbwDjh7VpHQ-5" value="Return template" style="ellipse;whiteSpace=wrap;html=1;aspect=fixed;" vertex="1" parent="1">
          <mxGeometry x="50" y="480" width="80" height="80" as="geometry" />
        </mxCell>
        <mxCell id="b8axCxzUsfbwDjh7VpHQ-9" value="" style="edgeStyle=orthogonalEdgeStyle;rounded=0;orthogonalLoop=1;jettySize=auto;html=1;" edge="1" parent="1" source="b8axCxzUsfbwDjh7VpHQ-8" target="lpzaVv8z84PRBy_t_nVB-2">
          <mxGeometry relative="1" as="geometry" />
        </mxCell>
        <mxCell id="b8axCxzUsfbwDjh7VpHQ-8" value="Login" style="ellipse;whiteSpace=wrap;html=1;aspect=fixed;" vertex="1" parent="1">
          <mxGeometry x="50" y="30" width="80" height="80" as="geometry" />
        </mxCell>
      </root>
    </mxGraphModel>
  </diagram>
  <diagram id="lmrSEQbsozxH6MtXO-Lk" name="Product management">
    <mxGraphModel dx="1050" dy="534" grid="1" gridSize="10" guides="1" tooltips="1" connect="1" arrows="1" fold="1" page="1" pageScale="1" pageWidth="850" pageHeight="1100" math="0" shadow="0">
      <root>
        <mxCell id="0" />
        <mxCell id="1" parent="0" />
        <mxCell id="adLidq6sqgSigzFnLdhb-1" value="CRU product&lt;br&gt;INPUT: ID&lt;br&gt;OUTPUT: ..." style="rounded=1;whiteSpace=wrap;html=1;" parent="1" vertex="1">
          <mxGeometry x="40" y="170" width="120" height="60" as="geometry" />
        </mxCell>
        <mxCell id="Xi84JvzZu3FYEeY-OYv7-1" value="Delete product" style="rounded=1;whiteSpace=wrap;html=1;" parent="1" vertex="1">
          <mxGeometry x="190" y="170" width="120" height="60" as="geometry" />
        </mxCell>
      </root>
    </mxGraphModel>
  </diagram>
  <diagram id="icJjTVslmV0qABothGH3" name="Customer management">
    <mxGraphModel dx="1050" dy="534" grid="1" gridSize="10" guides="1" tooltips="1" connect="1" arrows="1" fold="1" page="1" pageScale="1" pageWidth="850" pageHeight="1100" math="0" shadow="0">
      <root>
        <mxCell id="0" />
        <mxCell id="1" parent="0" />
        <mxCell id="bjyp6XcPwBSdh9_LTy-f-1" value="Create customer account&lt;br&gt;INPUT: name, phone number, address&lt;br&gt;OUPTUT: message" style="rounded=1;whiteSpace=wrap;html=1;" parent="1" vertex="1">
          <mxGeometry x="80" y="160" width="150" height="80" as="geometry" />
        </mxCell>
        <mxCell id="bjyp6XcPwBSdh9_LTy-f-3" value="Search customer&lt;br&gt;INPUT: phone number&lt;br&gt;OUPTUT: name, address" style="rounded=1;whiteSpace=wrap;html=1;" parent="1" vertex="1">
          <mxGeometry x="260" y="160" width="150" height="80" as="geometry" />
        </mxCell>
        <mxCell id="bjyp6XcPwBSdh9_LTy-f-4" value="View order&lt;br&gt;INPUT: phone number&lt;br&gt;OUPTUT: order" style="rounded=1;whiteSpace=wrap;html=1;" parent="1" vertex="1">
          <mxGeometry x="440" y="160" width="150" height="80" as="geometry" />
        </mxCell>
        <mxCell id="bjyp6XcPwBSdh9_LTy-f-5" value="View detail order&lt;br&gt;INPUT: order ID&lt;br&gt;OUPTUT: detail order" style="rounded=1;whiteSpace=wrap;html=1;" parent="1" vertex="1">
          <mxGeometry x="620" y="160" width="150" height="80" as="geometry" />
        </mxCell>
      </root>
    </mxGraphModel>
  </diagram>
  <diagram id="ENd9ZkO_COkJ-xM-uuWC" name="Transaction processing">
    <mxGraphModel dx="1050" dy="534" grid="1" gridSize="10" guides="1" tooltips="1" connect="1" arrows="1" fold="1" page="1" pageScale="1" pageWidth="850" pageHeight="1100" math="0" shadow="0">
      <root>
        <mxCell id="0" />
        <mxCell id="1" parent="0" />
        <mxCell id="DDET_pDUqbXMEU2OMI0F-1" value="Add, Remove product to order by barcode or ID&lt;br&gt;INPUT: barcode&lt;br&gt;OUTPUT: new order detail" style="rounded=1;whiteSpace=wrap;html=1;" parent="1" vertex="1">
          <mxGeometry x="60" y="180" width="170" height="100" as="geometry" />
        </mxCell>
        <mxCell id="DDET_pDUqbXMEU2OMI0F-2" value="Search product by name INPUT: barcode&lt;br&gt;OUTPUT: new order detail" style="rounded=1;whiteSpace=wrap;html=1;" parent="1" vertex="1">
          <mxGeometry x="270" y="180" width="170" height="100" as="geometry" />
        </mxCell>
        <mxCell id="Fc_9BV7XqErYYCygrjpW-1" value="Payment&lt;br&gt;INPUT: order ID&lt;br&gt;OUTPUT: new bill" style="rounded=1;whiteSpace=wrap;html=1;" parent="1" vertex="1">
          <mxGeometry x="470" y="180" width="170" height="100" as="geometry" />
        </mxCell>
        <mxCell id="Fc_9BV7XqErYYCygrjpW-4" value="Print invoice&lt;br&gt;INPUT: phone number or name and address&lt;br&gt;OUTPUT: pdf file" style="rounded=1;whiteSpace=wrap;html=1;" parent="1" vertex="1">
          <mxGeometry x="60" y="310" width="170" height="100" as="geometry" />
        </mxCell>
      </root>
    </mxGraphModel>
  </diagram>
  <diagram id="NLX_ZGbSm84Cqq4Tbomj" name="Not employ yet function">
    <mxGraphModel dx="1050" dy="534" grid="1" gridSize="10" guides="1" tooltips="1" connect="1" arrows="1" fold="1" page="1" pageScale="1" pageWidth="850" pageHeight="1100" math="0" shadow="0">
      <root>
        <mxCell id="0" />
        <mxCell id="1" parent="0" />
        <mxCell id="KPVqbz475FF1oAjg_bdV-1" value="view sale information of employee&lt;span id=&quot;docs-internal-guid-268f9bd4-7fff-d465-446e-af136aed6c9e&quot;&gt;&lt;/span&gt;" style="rounded=1;whiteSpace=wrap;html=1;" vertex="1" parent="1">
          <mxGeometry x="130" y="110" width="120" height="60" as="geometry" />
        </mxCell>
      </root>
    </mxGraphModel>
  </diagram>
</mxfile>
